<svg preserveAspectRatio="none" width="24" height="12" viewBox="0 0 24 12" fill="none" xmlns="http://www.w3.org/2000/svg">
<path d="M0.75 10.6366C0.75 10.9035 0.75 11.0369 0.834097 11.0781C0.918195 11.1192 1.02352 11.0373 1.23418 10.8734L10.7721 3.45502C11.362 2.99625 11.6569 2.76686 12 2.76686C12.3431 2.76686 12.638 2.99625 13.2279 3.45502L22.7658 10.8734C22.9765 11.0373 23.0818 11.1192 23.1659 11.0781C23.25 11.0369 23.25 10.9035 23.25 10.6366V9.72817C23.25 9.24782 23.25 9.00764 23.1483 8.79973C23.0466 8.59182 22.857 8.44437 22.4779 8.14946L13.2279 0.955018C12.638 0.496247 12.3431 0.266862 12 0.266862C11.6569 0.266862 11.362 0.496247 10.7721 0.955019L1.52212 8.14946C1.14295 8.44437 0.953369 8.59182 0.851685 8.79973C0.75 9.00764 0.75 9.24782 0.75 9.72817V10.6366Z" fill="#222222"/>
</svg>
