<svg preserveAspectRatio="none" width="18" height="19" viewBox="0 0 18 19" fill="none" xmlns="http://www.w3.org/2000/svg">
<path d="M0.25 9.05847C0.25 8.04936 0.25 7.54481 0.471665 7.11407C0.693329 6.68334 1.1039 6.39007 1.92505 5.80354L7.83752 1.58034C8.39886 1.17938 8.67953 0.978904 9 0.978904C9.32047 0.978904 9.60114 1.17938 10.1625 1.58034L16.075 5.80354C16.8961 6.39007 17.3067 6.68334 17.5283 7.11407C17.75 7.54481 17.75 8.04936 17.75 9.05847V16.25C17.75 17.1928 17.75 17.6642 17.4571 17.9571C17.1642 18.25 16.6928 18.25 15.75 18.25H2.25C1.30719 18.25 0.835786 18.25 0.542893 17.9571C0.25 17.6642 0.25 17.1928 0.25 16.25V9.05847Z" fill="#7E869E" fill-opacity="0.25"/>
</svg>
