<svg preserveAspectRatio="none" width="20" height="22" viewBox="0 0 20 22" fill="none" xmlns="http://www.w3.org/2000/svg">
<path fill-rule="evenodd" clip-rule="evenodd" d="M19.1573 2.22215C20 3.48327 20 5.23884 20 8.75C20 12.2612 20 14.0167 19.1573 15.2779C18.7926 15.8238 18.3238 16.2926 17.7779 16.6573C16.6762 17.3935 15.1971 17.4865 12.5 17.4983V17.5L10.8944 20.7111C10.5259 21.4482 9.4741 21.4482 9.10557 20.7111L7.5 17.5V17.4983C4.80287 17.4865 3.32384 17.3935 2.22215 16.6573C1.6762 16.2926 1.20744 15.8238 0.842652 15.2779C0 14.0167 0 12.2612 0 8.75C0 5.23884 0 3.48327 0.842652 2.22215C1.20744 1.6762 1.6762 1.20744 2.22215 0.842652C3.48327 0 5.23884 0 8.75 0H11.25C14.7612 0 16.5167 0 17.7779 0.842652C18.3238 1.20744 18.7926 1.6762 19.1573 2.22215Z" fill="#7E869E" fill-opacity="0.25"/>
<path d="M19.1573 2.22215L19.6562 1.88881L19.6562 1.88881L19.1573 2.22215ZM19.1573 15.2779L19.6562 15.6112L19.6562 15.6112L19.1573 15.2779ZM17.7779 16.6573L18.1112 17.1562L18.1112 17.1562L17.7779 16.6573ZM12.5 17.4983L12.4974 16.8983C12.167 16.8997 11.9 17.1679 11.9 17.4983H12.5ZM12.5 17.5L13.0367 17.7683C13.0783 17.685 13.1 17.5931 13.1 17.5H12.5ZM7.5 17.5H6.9C6.9 17.5931 6.92169 17.685 6.96334 17.7683L7.5 17.5ZM7.5 17.4983H8.1C8.1 17.1679 7.83296 16.8997 7.50262 16.8983L7.5 17.4983ZM2.22215 16.6573L1.88881 17.1562L1.88881 17.1562L2.22215 16.6573ZM0.842652 15.2779L0.34377 15.6112L0.34377 15.6112L0.842652 15.2779ZM0.842652 2.22215L1.34153 2.55549L1.34153 2.55549L0.842652 2.22215ZM2.22215 0.842652L2.55549 1.34153L2.55549 1.34153L2.22215 0.842652ZM17.7779 0.842652L18.1112 0.34377L18.1112 0.34377L17.7779 0.842652ZM20.6 8.75C20.6 7.00691 20.6007 5.65443 20.4916 4.58159C20.3814 3.49872 20.1544 2.63438 19.6562 1.88881L18.6585 2.55549C19.0029 3.07103 19.1972 3.71505 19.2977 4.70303C19.3993 5.70105 19.4 6.98193 19.4 8.75H20.6ZM19.6562 15.6112C20.1544 14.8656 20.3814 14.0013 20.4916 12.9184C20.6007 11.8456 20.6 10.4931 20.6 8.75H19.4C19.4 10.5181 19.3993 11.799 19.2977 12.797C19.1972 13.785 19.0029 14.429 18.6585 14.9445L19.6562 15.6112ZM18.1112 17.1562C18.7227 16.7477 19.2477 16.2227 19.6562 15.6112L18.6585 14.9445C18.3374 15.4249 17.9249 15.8374 17.4445 16.1585L18.1112 17.1562ZM12.5026 18.0983C13.8483 18.0924 14.9299 18.0668 15.8194 17.9438C16.7184 17.8195 17.46 17.5914 18.1112 17.1562L17.4445 16.1585C16.9941 16.4595 16.4452 16.6459 15.6551 16.7551C14.8553 16.8657 13.8488 16.8924 12.4974 16.8983L12.5026 18.0983ZM13.1 17.5V17.4983H11.9V17.5H13.1ZM11.4311 20.9795L13.0367 17.7683L11.9633 17.2317L10.3578 20.4428L11.4311 20.9795ZM8.56892 20.9795C9.15856 22.1588 10.8414 22.1587 11.4311 20.9795L10.3578 20.4428C10.2104 20.7376 9.78964 20.7376 9.64223 20.4428L8.56892 20.9795ZM6.96334 17.7683L8.56892 20.9795L9.64223 20.4428L8.03666 17.2317L6.96334 17.7683ZM6.9 17.4983V17.5H8.1V17.4983H6.9ZM1.88881 17.1562C2.54004 17.5914 3.28156 17.8195 4.18063 17.9438C5.07005 18.0668 6.15167 18.0924 7.49738 18.0983L7.50262 16.8983C6.1512 16.8924 5.14474 16.8657 4.34494 16.7551C3.55479 16.6459 3.00595 16.4595 2.55549 16.1585L1.88881 17.1562ZM0.34377 15.6112C0.752338 16.2227 1.27734 16.7477 1.88881 17.1562L2.55549 16.1585C2.07505 15.8374 1.66255 15.4249 1.34153 14.9445L0.34377 15.6112ZM-0.6 8.75C-0.6 10.4931 -0.600725 11.8456 -0.491588 12.9184C-0.38143 14.0013 -0.154408 14.8656 0.34377 15.6112L1.34153 14.9445C0.99706 14.429 0.802756 13.785 0.702251 12.797C0.600725 11.799 0.6 10.5181 0.6 8.75H-0.6ZM0.34377 1.88881C-0.154408 2.63438 -0.38143 3.49872 -0.491588 4.58159C-0.600725 5.65443 -0.6 7.00691 -0.6 8.75H0.6C0.6 6.98193 0.600725 5.70105 0.702251 4.70303C0.802756 3.71505 0.99706 3.07103 1.34153 2.55549L0.34377 1.88881ZM1.88881 0.34377C1.27734 0.752338 0.752338 1.27734 0.34377 1.88881L1.34153 2.55549C1.66255 2.07505 2.07505 1.66255 2.55549 1.34153L1.88881 0.34377ZM8.75 -0.6C7.00691 -0.6 5.65443 -0.600725 4.58159 -0.491588C3.49872 -0.38143 2.63438 -0.154408 1.88881 0.34377L2.55549 1.34153C3.07103 0.99706 3.71505 0.802756 4.70303 0.702251C5.70105 0.600725 6.98193 0.6 8.75 0.6V-0.6ZM11.25 -0.6H8.75V0.6H11.25V-0.6ZM18.1112 0.34377C17.3656 -0.154408 16.5013 -0.38143 15.4184 -0.491588C14.3456 -0.600725 12.9931 -0.6 11.25 -0.6V0.6C13.0181 0.6 14.299 0.600725 15.297 0.702251C16.285 0.802756 16.929 0.99706 17.4445 1.34153L18.1112 0.34377ZM19.6562 1.88881C19.2477 1.27734 18.7227 0.752338 18.1112 0.34377L17.4445 1.34153C17.9249 1.66255 18.3374 2.07505 18.6585 2.55549L19.6562 1.88881Z" fill="#222222"/>
</svg>
