<svg preserveAspectRatio="none" width="30" height="30" viewBox="0 0 30 30" fill="none" xmlns="http://www.w3.org/2000/svg">
<g filter="url(#filter0_i_175_52)">
<rect y="17.219" width="2.98343" height="7.63314" rx="1.49171" fill="#EF5350"/>
</g>
<rect y="17.219" width="2.98343" height="7.63314" rx="1.49171" stroke="#90CAF3" stroke-width="12.9389"/>
<rect x="27.0166" y="17.219" width="2.98343" height="7.63314" rx="1.49171" fill="#EF5350" stroke="#90CAF3" stroke-width="12.9389"/>
<line x1="21.2207" y1="5.14795" x2="21.2207" y2="11.361" stroke="#90CAF3" stroke-width="12.9389"/>
<g filter="url(#filter1_i_175_52)">
<rect x="11.4365" y="8.3432" width="7.29282" height="4.61538" rx="2.30769" fill="#EF5350"/>
</g>
<rect x="11.4365" y="8.3432" width="7.29282" height="4.61538" rx="2.30769" stroke="#90CAF3" stroke-width="12.9389"/>
<g filter="url(#filter2_i_175_52)">
<ellipse cx="15.0829" cy="2.84024" rx="2.65193" ry="2.84024" fill="#EF5350"/>
</g>
<ellipse cx="15.0829" cy="2.84024" rx="2.65193" ry="2.84024" stroke="#90CAF3" stroke-width="12.9389"/>
<g filter="url(#filter3_i_175_52)">
<path d="M1.4917 23.6874C1.4917 16.5855 7.24887 10.8284 14.3507 10.8284H15.6493C22.7511 10.8284 28.5083 16.5855 28.5083 23.6874V23.6874C28.5083 27.1737 25.682 30 22.1957 30H7.80429C4.31794 30 1.4917 27.1737 1.4917 23.6874V23.6874Z" fill="#EF5350"/>
</g>
<path d="M1.4917 23.6874C1.4917 16.5855 7.24887 10.8284 14.3507 10.8284H15.6493C22.7511 10.8284 28.5083 16.5855 28.5083 23.6874V23.6874C28.5083 27.1737 25.682 30 22.1957 30H7.80429C4.31794 30 1.4917 27.1737 1.4917 23.6874V23.6874Z" stroke="#90CAF3" stroke-width="12.9389"/>
<ellipse cx="9.28179" cy="17.574" rx="3.64641" ry="3.90532" fill="white" stroke="#90CAF3" stroke-width="12.9389"/>
<ellipse cx="9.2817" cy="17.574" rx="1.8232" ry="1.95266" fill="#0C0C0C"/>
<ellipse cx="8.61892" cy="17.219" rx="0.662984" ry="0.710059" fill="white"/>
<ellipse cx="20.5525" cy="17.574" rx="3.64641" ry="3.90532" fill="white" stroke="#90CAF3" stroke-width="12.9389"/>
<ellipse cx="20.5525" cy="17.574" rx="1.8232" ry="1.95266" fill="#0C0C0C"/>
<ellipse cx="19.8894" cy="17.219" rx="0.662984" ry="0.710059" fill="white"/>
<path d="M11.7679 23.787C13.0939 26.5385 16.8231 26.5385 18.232 23.787" stroke="#90CAF3" stroke-width="12.9389" stroke-linecap="round"/>
<defs>
<filter id="filter0_i_175_52" x="-6.46945" y="10.7496" width="15.9223" height="20.572" filterUnits="userSpaceOnUse" color-interpolation-filters="sRGB">
<feFlood flood-opacity="0" result="BackgroundImageFix"/>
<feBlend mode="normal" in="SourceGraphic" in2="BackgroundImageFix" result="shape"/>
<feColorMatrix in="SourceAlpha" type="matrix" values="0 0 0 0 0 0 0 0 0 0 0 0 0 0 0 0 0 0 127 0" result="hardAlpha"/>
<feOffset dx="25.8778" dy="9.70415"/>
<feComposite in2="hardAlpha" operator="arithmetic" k2="-1" k3="1"/>
<feColorMatrix type="matrix" values="0 0 0 0 1 0 0 0 0 1 0 0 0 0 1 0 0 0 0.25 0"/>
<feBlend mode="normal" in2="shape" result="effect1_innerShadow_175_52"/>
</filter>
<filter id="filter1_i_175_52" x="4.96701" y="1.87378" width="20.2317" height="17.5543" filterUnits="userSpaceOnUse" color-interpolation-filters="sRGB">
<feFlood flood-opacity="0" result="BackgroundImageFix"/>
<feBlend mode="normal" in="SourceGraphic" in2="BackgroundImageFix" result="shape"/>
<feColorMatrix in="SourceAlpha" type="matrix" values="0 0 0 0 0 0 0 0 0 0 0 0 0 0 0 0 0 0 127 0" result="hardAlpha"/>
<feOffset dx="25.8778" dy="9.70415"/>
<feComposite in2="hardAlpha" operator="arithmetic" k2="-1" k3="1"/>
<feColorMatrix type="matrix" values="0 0 0 0 1 0 0 0 0 1 0 0 0 0 1 0 0 0 0.25 0"/>
<feBlend mode="normal" in2="shape" result="effect1_innerShadow_175_52"/>
</filter>
<filter id="filter2_i_175_52" x="5.96152" y="-6.46942" width="18.2428" height="18.6193" filterUnits="userSpaceOnUse" color-interpolation-filters="sRGB">
<feFlood flood-opacity="0" result="BackgroundImageFix"/>
<feBlend mode="normal" in="SourceGraphic" in2="BackgroundImageFix" result="shape"/>
<feColorMatrix in="SourceAlpha" type="matrix" values="0 0 0 0 0 0 0 0 0 0 0 0 0 0 0 0 0 0 127 0" result="hardAlpha"/>
<feOffset dx="25.8778" dy="9.70415"/>
<feComposite in2="hardAlpha" operator="arithmetic" k2="-1" k3="1"/>
<feColorMatrix type="matrix" values="0 0 0 0 1 0 0 0 0 1 0 0 0 0 1 0 0 0 0.25 0"/>
<feBlend mode="normal" in2="shape" result="effect1_innerShadow_175_52"/>
</filter>
<filter id="filter3_i_175_52" x="-4.97775" y="4.35895" width="39.9555" height="32.1105" filterUnits="userSpaceOnUse" color-interpolation-filters="sRGB">
<feFlood flood-opacity="0" result="BackgroundImageFix"/>
<feBlend mode="normal" in="SourceGraphic" in2="BackgroundImageFix" result="shape"/>
<feColorMatrix in="SourceAlpha" type="matrix" values="0 0 0 0 0 0 0 0 0 0 0 0 0 0 0 0 0 0 127 0" result="hardAlpha"/>
<feOffset dx="25.8778" dy="9.70415"/>
<feComposite in2="hardAlpha" operator="arithmetic" k2="-1" k3="1"/>
<feColorMatrix type="matrix" values="0 0 0 0 1 0 0 0 0 1 0 0 0 0 1 0 0 0 0.25 0"/>
<feBlend mode="normal" in2="shape" result="effect1_innerShadow_175_52"/>
</filter>
</defs>
</svg>
