<svg preserveAspectRatio="none" width="24" height="20" viewBox="0 0 24 20" fill="none" xmlns="http://www.w3.org/2000/svg">
<path d="M4.5 8C4.5 3.85786 7.85786 0.5 12 0.5V0.5C16.1421 0.5 19.5 3.85786 19.5 8V10.2887C19.5 10.7801 19.5 11.0259 19.5146 11.2672C19.5824 12.3881 19.8855 13.4823 20.4041 14.4784C20.5157 14.6928 20.6421 14.9035 20.895 15.3249L21.5867 16.4779C22.2505 17.5842 22.5824 18.1374 22.4278 18.5798C22.3884 18.6928 22.3289 18.7978 22.2524 18.8898C21.9525 19.25 21.3074 19.25 20.0172 19.25H3.98287C2.69266 19.25 2.04756 19.25 1.7477 18.8898C1.67113 18.7978 1.6117 18.6928 1.57222 18.5799C1.41762 18.1374 1.74951 17.5842 2.41331 16.4779L3.10508 15.3249C3.35793 14.9035 3.48435 14.6928 3.59598 14.4784C4.11455 13.4823 4.4176 12.3881 4.4854 11.2672C4.5 11.0259 4.5 10.7802 4.5 10.2887V8Z" fill="#7E869E" fill-opacity="0.25"/>
</svg>
