<svg preserveAspectRatio="none" width="27" height="24" viewBox="0 0 27 24" fill="none" xmlns="http://www.w3.org/2000/svg">
<path d="M13.5 2.4C11.9087 2.4 10.3826 2.90571 9.25736 3.80589C8.13214 4.70606 7.5 5.92696 7.5 7.2C7.5 8.47304 8.13214 9.69394 9.25736 10.5941C10.3826 11.4943 11.9087 12 13.5 12C15.0913 12 16.6174 11.4943 17.7426 10.5941C18.8679 9.69394 19.5 8.47304 19.5 7.2C19.5 5.92696 18.8679 4.70606 17.7426 3.80589C16.6174 2.90571 15.0913 2.4 13.5 2.4ZM4.5 7.2C4.5 5.29044 5.44821 3.45909 7.13604 2.10883C8.82387 0.758569 11.1131 0 13.5 0C15.8869 0 18.1761 0.758569 19.864 2.10883C21.5518 3.45909 22.5 5.29044 22.5 7.2C22.5 9.10956 21.5518 10.9409 19.864 12.2912C18.1761 13.6414 15.8869 14.4 13.5 14.4C11.1131 14.4 8.82387 13.6414 7.13604 12.2912C5.44821 10.9409 4.5 9.10956 4.5 7.2ZM7.5 19.2C6.30653 19.2 5.16193 19.5793 4.31802 20.2544C3.47411 20.9295 3 21.8452 3 22.8C3 23.1183 2.84196 23.4235 2.56066 23.6485C2.27936 23.8736 1.89782 24 1.5 24C1.10218 24 0.720644 23.8736 0.43934 23.6485C0.158035 23.4235 0 23.1183 0 22.8C0 21.2087 0.790176 19.6826 2.1967 18.5574C3.60322 17.4321 5.51088 16.8 7.5 16.8H19.5C21.4891 16.8 23.3968 17.4321 24.8033 18.5574C26.2098 19.6826 27 21.2087 27 22.8C27 23.1183 26.842 23.4235 26.5607 23.6485C26.2794 23.8736 25.8978 24 25.5 24C25.1022 24 24.7206 23.8736 24.4393 23.6485C24.158 23.4235 24 23.1183 24 22.8C24 21.8452 23.5259 20.9295 22.682 20.2544C21.8381 19.5793 20.6935 19.2 19.5 19.2H7.5Z" fill="#0D0D0D"/>
</svg>
